<?xml version="1.0" encoding="iso-8859-1"?>
<!-- Uploaded to: SVG Repo, www.svgrepo.com, Generator: SVG Repo Mixer Tools -->
<svg height="800px" width="800px" version="1.1" id="Capa_1" xmlns="http://www.w3.org/2000/svg" xmlns:xlink="http://www.w3.org/1999/xlink" 
	 viewBox="0 0 489.556 489.556" xml:space="preserve">
<g>
	<path style="fill:#010001;" d="M192.778,121.075c20.311-6.77,37.929-10.88,53.859-12.564c15.677-1.659,27.457-2.431,37.076-2.431
		c10.37,0,17.822,0.874,26.487,2.285l1.805,0.294l3.014-19.125l-1.509-0.463c-0.727-0.224-18.105-5.477-42.94-5.477
		c-4.119,0-8.25,0.149-12.302,0.443l-1.559-5.353c9.864-2.971,16.838-12.204,16.838-22.655c0-13.045-10.613-23.657-23.657-23.657
		c-13.045,0-23.657,10.613-23.657,23.657c0,10.737,7.361,20.188,17.655,22.884l1.896,6.514
		c-32.712,4.894-58.876,17.601-59.142,17.732l-1.419,0.696l5.819,17.798L192.778,121.075z M248.365,88.732l2.088-0.289
		l-3.672-12.611l-1.065-0.226c-9.179-1.947-15.843-10.181-15.843-19.578c0-11.038,8.98-20.017,20.018-20.017
		c11.037,0,20.017,8.98,20.017,20.017c0,9.4-6.664,17.634-15.848,19.58l-1.918,0.406l3.461,11.885l1.48-0.122
		c4.426-0.361,8.964-0.545,13.487-0.545c20.157,0,35.611,3.637,40.356,4.895l-1.947,12.357c-7.917-1.237-15.432-2.044-25.266-2.044
		c-9.75,0-21.652,0.779-37.458,2.451c-15.737,1.664-33.055,5.642-52.89,12.156l-3.691-11.289
		C195.649,103.03,219.632,92.701,248.365,88.732z"/>
	<path style="fill:#010001;" d="M97.798,184.985c0.78-0.994,1.548-1.945,2.308-2.868l1.227-1.491l-19.566-14.281l-1.043,1.427
		c-0.096,0.106-0.286,0.298-0.557,0.577c-13.176,13.523-21.983,28.45-27.324,39.41c-0.057-0.063-0.112-0.126-0.169-0.188
		c-4.022-4.437-9.573-6.687-16.498-6.687c-0.181,0-0.362,0.002-0.541,0.005l-0.266,0.002c-2.471,0-4.601-0.553-6.354-1.646
		c1.5-2.445,2.285-5.222,2.285-8.128c0-8.629-7.021-15.65-15.65-15.65c-8.63,0-15.65,7.021-15.65,15.65
		c0,8.629,7.02,15.65,15.65,15.65c0.922,0,1.863-0.09,2.81-0.266c3.212,3.251,8.594,6.764,16.848,6.764
		c0.173,0,0.348-0.001,0.52-0.004l0.326-0.003c3.336,0,5.735,0.851,7.334,2.602c1.867,2.044,2.55,5.062,2.787,7.369
		c-8.943,24.643-6.54,54.439-6.433,55.7l0.136,1.6l25.264,1.007l0.071-1.818c0.414-10.381,1.948-30.108,7.576-45.582
		c10.797-29.678,24.262-48.268,24.812-49.022L97.798,184.985z M94.915,182.764l-0.134,0.178c-0.58,0.794-14.339,19.79-25.311,49.95
		c-5.48,15.068-7.186,33.9-7.713,44.862l-18.394-0.732c-0.368-6.564-1.196-32.037,6.429-52.824l-1.708-0.627l1.743,0.537
		l0.144-0.384l-0.034-0.408c-0.246-2.911-1.098-6.994-3.763-9.913c-2.328-2.548-5.605-3.787-10.021-3.787l-0.387,0.003
		c-0.154,0.002-0.307,0.004-0.458,0.004c-7.58,0-12.275-3.449-14.879-6.342l-0.737-0.817l-1.066,0.271
		c-1.011,0.258-2.012,0.389-2.976,0.389c-6.623,0-12.011-5.387-12.011-12.01c0-6.622,5.388-12.01,12.011-12.01
		c6.622,0,12.01,5.388,12.01,12.01c0,2.706-0.888,5.268-2.57,7.407l-1.062,1.352l1.289,1.138c2.645,2.334,6.027,3.518,10.053,3.518
		l0.324-0.003c6.087-0.105,10.891,1.744,14.284,5.487c0.603,0.665,1.169,1.411,1.684,2.218l1.786,2.8l1.398-3.013
		c4.994-10.759,13.809-26.512,27.529-40.72l13.702,10.003C95.695,181.775,95.309,182.262,94.915,182.764z"/>
	<path style="fill:#010001;" d="M464.135,156.356c-0.04-2.583,0.511-4.802,1.644-6.618c2.445,1.499,5.222,2.284,8.127,2.284
		c8.63,0,15.65-7.02,15.65-15.649c0-8.629-7.02-15.65-15.65-15.65c-8.629,0-15.65,7.02-15.65,15.65c0,0.925,0.09,1.869,0.268,2.819
		c-3.326,3.294-6.896,8.83-6.762,17.357c0.054,3.508-0.796,6.014-2.599,7.662c-1.038,0.948-2.421,1.676-4.121,2.17
		c-16.156-22.151-35.84-35.976-36.04-36.115l-1.294-0.901l-18.017,19.327l1.36,1.239c12.631,11.505,24.569,25.252,35.485,40.857
		c7.772,11.112,16.055,25.798,23.324,41.354l0.774,1.657l24.385-11.544l-0.644-1.592c-0.095-0.234-9.332-22.936-22.284-43.761
		c2.023-0.933,3.82-2.108,5.362-3.505C461.999,169.276,464.248,163.543,464.135,156.356z M448.786,174.323l-2.151,0.766l1.225,1.925
		c11.381,17.887,20.082,37.762,22.479,43.431l-17.96,8.501c-7.165-15.126-15.247-29.361-22.86-40.243
		c-10.68-15.267-22.333-28.788-34.661-40.216l13.338-14.304c4.633,3.456,21.037,16.366,34.616,35.325l0.694,0.97l1.167-0.251
		c2.865-0.616,5.201-1.735,6.945-3.327c2.618-2.392,3.856-5.796,3.784-10.406c-0.123-7.834,3.381-12.664,6.34-15.336l0.817-0.737
		l-0.273-1.065c-0.259-1.011-0.39-2.015-0.39-2.981c0-6.623,5.388-12.011,12.01-12.011c6.623,0,12.011,5.388,12.011,12.011
		c0,6.622-5.388,12.01-12.011,12.01c-2.705,0-5.265-0.888-7.406-2.571l-1.352-1.062l-1.137,1.289
		c-2.398,2.717-3.58,6.207-3.516,10.374c0.097,6.094-1.75,10.9-5.486,14.287C453.313,172.239,451.22,173.457,448.786,174.323z"/>
	<path style="fill:#010001;" d="M459.267,287.656l-2.604,1.731c-7.771,5.169-20.759,13.143-38.5,21.78
		c-29.011,14.124-76.789,32.798-139.646,41.549c-22.504,3.133-46.266,4.721-70.625,4.721c-24.34,0-49.045-1.555-73.43-4.621
		c-22.154-2.786-39.481-6.21-50.116-8.592l-3.082-0.69l0.017,0.054l-0.062-0.013l0.934,2.958c2.628,8.332,5.832,16.476,9.523,24.207
		c0.001,0.001,0.002,0.003,0.002,0.004l0,0l0.274,0.565c0.002,0.004,0.159,0.008,0.161,0.012c0.241,0.504-0.113,1.008,0.887,1.51
		c0,0.001,0,0.002,0,0.003c0,0.429,0.104,0.538,0.319,1.538H93c0,0,0-0.252,0-0.251c1,0.883,1.062,1.761,1.519,2.632l0.442,0.689
		c6.42,12.1,14.066,22.996,22.645,32.388c30.125,32.991,61.148,38.266,61.462,38.317l0.332,0.05l0.32,0.104
		c0.271,0.089,27.495,8.882,68.628,8.883c40.464,0,80.164-8.158,118-24.246l0.117-0.055c28.096-14.371,54.756-36.286,67.92-55.824
		c10.227-15.086,17.627-31.232,21.998-47.99c2.859-10.96,4.02-25.275,3.104-38.294L459.267,287.656z M452.857,328.148
		c-4.266,16.357-11.496,32.125-21.492,46.871c-12.838,19.057-38.937,40.48-66.504,54.593
		c-37.361,15.879-76.562,23.931-116.512,23.931c-40.441,0-67.223-8.614-67.484-8.699l-0.452-0.15l-0.752-0.143
		c-0.3-0.049-30.198-5.276-59.328-37.178c-8.372-9.165-15.8-19.811-22.073-31.635l-0.345-0.661l-0.008-0.015
		c-0.448-0.855-0.891-1.716-1.325-2.576c-0.452-0.903-0.897-1.81-1.338-2.728c-0.004-0.008-0.008-0.015-0.011-0.023l0,0
		c-0.001-0.002-0.002-0.004-0.003-0.006l-0.266-0.548l0,0c-0.844-1.777-1.658-3.585-2.451-5.412
		c-0.244-0.562-0.474-1.136-0.713-1.703c-0.538-1.275-1.071-2.555-1.584-3.851c-0.272-0.688-0.532-1.384-0.796-2.077
		c-0.458-1.201-0.91-2.406-1.345-3.621c-0.263-0.734-0.519-1.473-0.773-2.212c-0.21-0.61-0.409-1.225-0.613-1.838
		c10.838,2.34,27.08,5.416,47.318,7.959c24.534,3.085,49.392,4.65,73.883,4.65c24.526,0,48.457-1.6,71.126-4.755
		c63.331-8.817,111.49-27.642,140.738-41.882c16.045-7.812,28.255-15.095,36.279-20.288
		C456.809,311.355,453.835,324.401,452.857,328.148z"/>
	<path style="fill:#010001;" d="M188.882,294.011c33.114,0,60.054-26.939,60.053-60.052c0-33.113-26.939-60.052-60.053-60.052
		s-60.053,26.94-60.053,60.052C128.829,267.072,155.769,294.011,188.882,294.011z M188.882,177.547
		c31.107,0,56.414,25.306,56.414,56.412c0,31.106-25.308,56.413-56.414,56.413c-31.107,0-56.414-25.307-56.414-56.413
		C132.468,202.854,157.775,177.547,188.882,177.547z"/>
	<path style="fill:#010001;" d="M359.251,251.064c20.871,0,37.851-16.98,37.851-37.851c0-20.872-16.98-37.852-37.851-37.852
		c-20.872,0-37.852,16.98-37.852,37.852C321.399,234.084,338.379,251.064,359.251,251.064z M359.251,179.002
		c18.864,0,34.211,15.347,34.211,34.212c0,18.864-15.346,34.211-34.211,34.211c-18.865,0-34.213-15.347-34.213-34.211
		S340.386,179.002,359.251,179.002z"/>
	<path style="fill:#010001;" d="M208.207,343.372c0.006,0,0.009,0,0.014,0c23.527,0,46.536-1.428,68.39-4.469
		c60.74-8.456,106.883-26.359,134.897-39.936c23.549-11.413,38.702-21.79,44.124-25.733l1.012-0.722l-0.326-1.202
		c-5.903-21.89-21.866-55.242-36.341-75.933c-41.815-59.779-87.034-75.142-110.266-78.98c-8.852-1.464-15.943-2.31-25.996-2.31
		c-9.322,0-20.836,0.758-36.233,2.386c-15.504,1.641-32.754,5.692-52.735,12.385c-28.118,9.419-53.56,24.202-73.58,42.752
		l-0.66,0.612c-2.984,2.762-9.192,8.51-16.333,17.611l-0.047,0.063c-0.55,0.767-13.653,19.103-23.793,46.978
		C72.739,257.757,73,288.09,73,288.384v0.069c0,6.974,0.479,13.919,1.264,20.919h0.04l0.06,1h0.011c0.086,0,0.187,1.202,0.283,1.954
		l0.049,0.046h-0.002c0.626,5,1.445,9.944,2.433,14.755l0.25,1.164l0.253,0.08l0.872,0.115
		C88.411,330.989,141.182,343.372,208.207,343.372z M78.271,311.715c-0.094-0.738-0.271-1.536-0.271-2.28v-0.063h-0.001h-0.037
		H77.96c-0.768-7-0.96-14.077-0.96-20.934v-0.095c0-0.298-0.43-29.977,6.934-50.224c9.86-27.107,22.38-44.952,23.178-46.071
		c6.951-8.855,12.979-14.46,15.893-17.157l0.649-0.614c19.641-18.201,44.622-32.713,72.253-41.969
		c19.728-6.608,36.722-10.604,51.959-12.216c15.268-1.615,26.658-2.366,35.849-2.366c9.803,0,16.736,0.83,25.402,2.262
		c22.668,3.745,66.826,18.79,107.876,77.477c14.006,20.02,29.417,52.039,35.476,73.589c-6.074,4.338-20.607,14.06-42.55,24.695
		c-27.778,13.464-73.541,31.478-133.812,39.868c-21.686,3.019-44.525,4.755-67.885,4.755c-0.004,0-0.01,0-0.014,0
		c-64.393,0-115.499-11.795-127.688-14.808c-0.025-0.126-0.05-0.355-0.075-0.481c-0.4-2.01-0.775-4.094-1.115-6.143
		c-0.023-0.14-0.044-0.307-0.067-0.447c-0.347-2.119-0.666-4.263-0.946-6.397c-0.001-0.008-0.002-0.023-0.003-0.031l0,0
		L78.271,311.715z"/>
</g>
</svg>